PathFileType	4	(X/Y/Z)	RBDS016\RBDS016runT45.trc
DataRate	CameraRate	NumFrames	NumMarkers	Units	OrigDataRate	OrigDataStartFrame	OrigNumFrames
150.000000	150.000000	6	33	mm	150.000000	2812	4500
Frame#	Time	L.ASIS			L.Heel.Bottom			L.Heel.Lateral			L.Heel.Top			L.Iliac.Crest			L.MT1			L.MT5			L.PSIS			L.Shank.Bottom.Lateral			L.Shank.Bottom.Medial			L.Shank.Top.Lateral			L.Shank.Top.Medial			L.Thigh.Bottom.Lateral			L.Thigh.Bottom.Medial			L.Thigh.Top.Lateral			L.Thigh.Top.Medial			R.ASIS			R.ASY			R.Heel.Bottom			R.Heel.Lateral			R.Heel.Top			R.Iliac.Crest			R.MT1			R.MT5			R.PSIS			R.Shank.Bottom.Lateral			R.Shank.Bottom.Medial			R.Shank.Top.Lateral			R.Shank.Top.Medial			R.Thigh.Bottom.Lateral			R.Thigh.Bottom.Medial			R.Thigh.Top.Lateral			R.Thigh.Top.Medial			
		X1	Y1	Z1	X2	Y2	Z2	X3	Y3	Z3	X4	Y4	Z4	X5	Y5	Z5	X6	Y6	Z6	X7	Y7	Z7	X8	Y8	Z8	X9	Y9	Z9	X10	Y10	Z10	X11	Y11	Z11	X12	Y12	Z12	X13	Y13	Z13	X14	Y14	Z14	X15	Y15	Z15	X16	Y16	Z16	X17	Y17	Z17	X18	Y18	Z18	X19	Y19	Z19	X20	Y20	Z20	X21	Y21	Z21	X22	Y22	Z22	X23	Y23	Z23	X24	Y24	Z24	X25	Y25	Z25	X26	Y26	Z26	X27	Y27	Z27	X28	Y28	Z28	X29	Y29	Z29	X30	Y30	Z30	X31	Y31	Z31	X32	Y32	Z32	X33	Y33	Z33	

2813	18.74666666666667	2336.975741406897	906.3130185329171	932.8916761878842	1673.76003625084	270.3182328788177	1051.159825880188	1686.446853157836	258.8917862685796	1000.703886980191	1715.961749347175	285.7540007198272	1034.252638318504	2298.911091783451	986.925035931612	894.8938460889426	1800.709530796182	88.30189521218577	1033.444487928671	1739.965747378018	116.2287110892109	949.2586552627278	2167.411458583259	973.8518304916129	1018.798393126962	1782.892165239999	317.904621600667	965.7027459167734	1779.220587796591	329.6930286716284	1019.942581907824	1826.243126769175	384.9215722455682	954.9913395446642	1824.241461661824	396.1483952668879	1007.640596083067	2057.222727528461	620.3953579118629	906.2314864457946	2017.958620597011	654.113490498327	957.6667282557432	2110.892926680972	714.0859688027599	887.0475488448844	2074.682078542518	745.5414481824389	938.3349379313702	2358.229215388773	946.5007858817327	1147.222069317816	2562.24771544428	171.0148814710873	1132.360828497484	2384.112211473283	137.6896600998065	1065.082178839949	2399.380419791469	157.5743701289144	1113.515108460365	2398.93593761834	186.9668257586297	1069.602006799417	2293.704227757273	1020.467917355601	1209.187219394277	2597.803387695692	135.4956200179822	1099.715181771631	2535.167306588745	125.1429602745718	1189.503168346771	2178.692100395378	975.9522583362584	1118.93020572178	2449.476666339922	268.2149600159286	1148.566919919925	2422.901746307277	279.6561813471246	1106.14559482322	2456.798490470476	350.7615427607051	1165.390878816792	2428.164739501413	358.9267628487396	1121.21612347345	2474.846685195553	643.6335837752849	1203.912317787715	2428.048446220287	601.7672077911096	1166.674997454449	2391.646590439534	711.5843110106978	1229.503230483833	2348.011344221988	671.2247047220345	1195.638529931372	
2814	18.75333333333333	2338.443368496965	908.4516417610022	932.930840133931	1663.253633665079	290.6065851000158	1051.716866039283	1674.923645344899	278.8524727799733	1001.07493098932	1706.278542566397	303.8725209803131	1034.528540232739	2303.185218392673	989.5366772261721	895.3722170745591	1780.579217441343	101.7058166080375	1031.854299418905	1720.715840639289	133.1888473361143	948.4788192784476	2168.519655729771	978.2749657709387	1017.753756251701	1773.235134138318	332.4333216072407	965.4538770536595	1770.580537187961	343.9910945875425	1019.815972616247	1819.216531611123	397.5566194550638	954.7714779680974	1818.120644842436	408.5497309517953	1007.488310694516	2056.228437636974	624.8527117128231	905.6395244829317	2017.937170039539	658.1000153018263	958.1164934300473	2110.312826617233	718.4204207717441	887.2068789529322	2075.04362034963	749.4499917175474	939.4503479136083	2357.552802636805	948.3490976320561	1146.772920283073	2588.724500747514	170.7342960755298	1128.151814775674	2413.408898105586	122.3733102475735	1064.035576196634	2427.974554864705	142.5493238176	1112.481558604974	2423.728670059516	172.6097970551595	1069.408486089531	2293.713490674645	1023.962995384309	1207.989924729114	2626.384097737939	139.643044329087	1093.836853760111	2567.570304394189	121.5064801022267	1184.71059868142	2179.567230011965	979.8376205195373	1117.769573420331	2468.24336360921	257.9956659902109	1147.756819351049	2440.616159437609	267.6265762703492	1105.648947878521	2469.332488146659	340.5354560451737	1165.374844609814	2439.989553534099	346.7568240452913	1121.422454431781	2470.357347248383	640.3001461685377	1204.181994624819	2422.57172435288	599.1027755477734	1167.478404511221	2388.795692167458	710.3663922976311	1229.383577298752	2344.315503218197	670.7332031155344	1195.696725633635	
2815	18.76	2339.846197751019	910.4952003733748	932.9164148763929	1653.455682374984	311.1060070265087	1052.573745457582	1664.274359565647	299.2350620497066	1001.794901885619	1697.113879513124	322.3238977979197	1035.292563449429	2306.090514132126	992.2654884206516	895.6390106862184	1761.338981540139	116.5781760400373	1030.638190434354	1702.72840887594	151.6097360903973	947.9202345036051	2169.388860654226	982.4584711240956	1016.735127602185	1764.570786850372	347.2391828103889	965.5467112991972	1762.864605016856	358.8159999810487	1019.942658604139	1813.432975026011	410.094655137441	954.6889528526705	1813.197287908924	421.0758897409085	1007.393331539462	2056.722938900648	627.5936307744606	904.8779895745596	2019.074604368528	660.2274404482333	958.2130068666676	2110.726256014401	721.2954675021739	887.0959225127244	2076.027476784572	751.7899534845194	940.0756860468723	2356.708201120269	949.4843875079175	1146.54033692368	2612.995969190711	171.6394512088624	1123.948290728257	2441.530729681735	108.8073159467154	1063.06694783645	2455.549217761908	129.1111504572584	1111.540829283796	2447.360511922865	159.5709411672253	1069.41019947679	2293.347168305023	1026.300708805872	1206.844986846151	2652.192732752587	145.1932466279155	1087.875526498145	2598.146627048348	119.4823614627749	1179.792638891297	2180.102965021622	983.1112524069824	1116.54721882719	2485.926306357134	248.6193246321708	1147.195917514481	2457.176777048665	256.4854485059317	1105.566846584883	2480.991197579421	330.7276638614612	1165.689354402613	2450.832150599169	335.0672960802452	1122.152562063451	2464.806430436481	635.7624378326587	1204.630204298816	2416.222942105278	595.7196095794766	1167.865842390879	2385.045974534725	708.0782585946947	1229.342789507414	2339.872819859064	669.5909118491977	1195.300949570548	
2816	18.76666666666667	2341.189283172273	912.3825292785243	932.8533360263258	1644.594840805898	331.878093824988	1053.606875191527	1654.726538651975	319.9928587404568	1002.745690134226	1688.729857651279	341.1062985415579	1036.397017090637	2307.612799969837	995.1003676430461	895.7001236807569	1743.092092721408	132.7126614561284	1029.852861487095	1686.12613720398	171.2157163810884	947.6014149334991	2170.041047178949	986.2438422550003	1015.751967360793	1757.03964408414	362.2328067759894	965.8632591312899	1756.215489377717	374.0605757468698	1020.213894570788	1808.943751191665	422.4684681755525	954.6518023587322	1809.521736249264	433.6456987428626	1007.272052195013	2058.615586617574	628.596120901738	903.9328063907433	2021.284334887142	660.556750922864	957.9055708001399	2112.122193297501	722.6382565395804	886.6441443522002	2077.615525777762	752.5670340125397	940.0995365420013	2355.773834469047	949.9355804965043	1146.476609219487	2634.655325298456	173.5162570291505	1119.907419132207	2467.928069540483	96.97067798186264	1062.052915420287	2481.499740935064	117.2849746408699	1110.588398656837	2469.364608533072	147.8722621592669	1069.465422623916	2292.642403237424	1027.421905171017	1205.807419666983	2674.886360524897	151.7888597760085	1082.097244289884	2626.249789690922	118.9084869063656	1174.922152228095	2180.310244207307	985.6566666057861	1115.297146463344	2502.148657341246	240.1706637723938	1146.797107092296	2472.246885082883	246.3152305881466	1105.757804223414	2491.499854724886	321.5039644574848	1166.192478243813	2460.457937796519	324.0236915936186	1123.212537939958	2458.340905640919	630.2350525024302	1205.187153454146	2409.169846634808	591.806787097758	1167.768361299454	2380.50691142495	704.8561862750031	1229.362359917391	2334.811203887273	667.914109540539	1194.457445454794	
2817	18.77333333333333	2342.475575965385	914.0507294059554	932.7433123563367	1636.969728858887	352.9597431564014	1054.673408061111	1646.55754288399	341.0583543889399	1003.787814425187	1681.453922564564	360.1882497179948	1037.669218823758	2307.821274619722	997.984825994861	895.5672460716918	1725.981745394233	149.885935973455	1029.529915812216	1671.050599921532	191.707714294002	947.5259057311857	2170.505995393884	989.4529637169103	1014.810922303355	1750.821106529963	377.3052004746986	966.2755433850178	1750.822114353814	389.5800853167938	1020.514886629194	1805.8340711099	434.5999865403307	954.5692149398278	1807.184016950215	446.1516914803842	1007.046105840308	2061.777070194572	627.9189765477214	902.8082821568419	2024.461200492376	659.214912358409	957.1823538676902	2114.452875419773	722.4528108181183	885.8170960060567	2079.777386355302	751.8475509870016	939.4701564278673	2354.82056570071	949.7448137155743	1146.529241145423	2653.333591513429	176.0526365137875	1116.173378925732	2492.024987709199	86.76905435472906	1060.892571844213	2505.191310060798	107.0157850549511	1109.536057353402	2489.256450507552	137.4841387486875	1069.438959512123	2291.646920017683	1027.324294827402	1204.926764384874	2694.188346880117	158.9650998149522	1076.753134681083	2651.246522232733	119.4905380161398	1170.279087846801	2180.21733810756	987.3712094182985	1114.060141646204	2516.52252517307	232.6700327734955	1146.462712609235	2485.495556953082	237.1507428356418	1106.058060390543	2500.578709606772	312.9798163174951	1166.728690868116	2468.648201515524	313.7585021569403	1124.378756838945	2451.173607911037	623.9879672297467	1205.774769586078	2401.62210253774	587.5574152499761	1167.178342063928	2375.346797779695	700.8927475850172	1229.411193449093	2329.296077926256	665.8336233546815	1193.221383514264	
2818	18.78	2343.706315114691	915.4382205623566	932.5850798158602	1630.911239843768	374.3385216148445	1055.629182428917	1640.061679904914	362.3315708666859	1004.777220522132	1675.637361856108	379.4959787827419	1038.93131793133	2306.857776008833	1000.819352471008	895.2532117771539	1710.185753586499	167.8684355527681	1029.670830099938	1657.656337164393	212.7814111238655	947.6803012933889	2170.821002140682	991.9025766241039	1013.914783921592	1746.109903732873	392.3301158166655	966.6615998802667	1746.894288823024	405.1980859131262	1020.739453281133	1804.208346284699	446.3990130690268	954.3624317862301	1806.298354308831	458.4612744309745	1006.652291945452	2066.047373965277	625.6892972494744	901.5279688415787	2028.484061904395	656.3753961634541	956.0709858648752	2117.63489550475	720.8144967959092	884.6236403524164	2082.467462823978	749.7463333906002	938.2028285180204	2353.905294730846	948.9649398161393	1146.648910328852	2668.725479074146	178.8494160202513	1112.864525721215	2513.245382083954	78.03767268086334	1059.512565467259	2525.993739820385	98.16876860556242	1108.316269396895	2506.5579341426	128.3246182969053	1069.211013358177	2290.414776942914	1026.065128479676	1204.242198325025	2709.904855949496	166.1673621145884	1072.055799763916	2672.560102781596	120.8101974420918	1166.031427787197	2179.868614981486	988.1746928468069	1112.879181076856	2528.672703549135	226.0628786481902	1146.092819658899	2496.613245488993	228.9698765697608	1106.297660768194	2507.960231238	305.2056446116221	1167.145139397322	2475.206317158477	304.356495952407	1125.422384573118	2443.569226414857	617.3240991916263	1206.311466183417	2393.817060088042	583.154488500057	1166.146828762963	2369.782940478007	696.4211375957921	1229.445531098806	2323.520292444833	663.4839772276597	1191.687061976539	
